HIERARCHY
ROOT Hips
{
  OFFSET 26.1382 94.4045 -15.3854
  CHANNELS 6 Xposition Yposition Zposition Zrotation Xrotation Yrotation
  JOINT RightUpLeg
  {
    OFFSET -8.9458 -8.66707 0.101652
    CHANNELS 3 Zrotation Xrotation Yrotation
    JOINT RightLeg
    {
      OFFSET 0 -44.4227 1.3727
      CHANNELS 3 Zrotation Xrotation Yrotation
      JOINT RightFoot
      {
        OFFSET 0.253549 -42.0924 -1.46059
        CHANNELS 3 Zrotation Xrotation Yrotation
        JOINT RightToes
        {
          OFFSET 0.04 -4.41509 8.4991
          CHANNELS 3 Zrotation Xrotation Yrotation
          End Site
          {
            OFFSET -0.08 -0.137448 9.77979
          }
        }
      }
    }
  }
  JOINT Spine
  {
    OFFSET 0 11.8905 0
    CHANNELS 3 Zrotation Xrotation Yrotation
    JOINT Spine1
    {
      OFFSET 0 25.6574 0.127663
      CHANNELS 3 Zrotation Xrotation Yrotation
      JOINT HEad
      {
        OFFSET 0 8.73416 0.011341
        CHANNELS 3 Zrotation Xrotation Yrotation
        End Site
        {
          OFFSET -0.29 12.7742 2.51395
        }
      }
      JOINT LeftShoulder1
      {
        OFFSET 8.99 -0.362252 -0.22
        CHANNELS 3 Zrotation Xrotation Yrotation
        JOINT LeftArm
        {
          OFFSET 10.2827 -0.00338 0.322123
          CHANNELS 3 Zrotation Xrotation Yrotation
          JOINT LeftForeArm
          {
            OFFSET 32.7669 0.099144 -1.42434
            CHANNELS 3 Zrotation Xrotation Yrotation
            JOINT LeftHand
            {
              OFFSET 27.5643 0.085362 1.02216
              CHANNELS 3 Zrotation Xrotation Yrotation
              End Site
              {
                OFFSET 16.7443 -0.6 1.50291
              }
            }
          }
        }
      }
      JOINT RightShoulder
      {
        OFFSET -8.99 -0.362252 -0.22
        CHANNELS 3 Zrotation Xrotation Yrotation
        JOINT RightArm
        {
          OFFSET -10.2827 -0.00338 0.322123
          CHANNELS 3 Zrotation Xrotation Yrotation
          JOINT RightForeArm
          {
            OFFSET -32.8971 0.099144 -1.42434
            CHANNELS 3 Zrotation Xrotation Yrotation
            JOINT RightHand
            {
              OFFSET -27.4921 0.085362 1.02216
              CHANNELS 3 Zrotation Xrotation Yrotation
              End Site
              {
                OFFSET -16.6312 -0.6 1.50291
              }
            }
          }
        }
      }
    }
  }
  JOINT LeftUpLeg
  {
    OFFSET 8.9458 -8.66707 0.101652
    CHANNELS 3 Zrotation Xrotation Yrotation
    JOINT LeftLeg
    {
      OFFSET 0 -44.4227 1.3727
      CHANNELS 3 Zrotation Xrotation Yrotation
      JOINT LeftFoot
      {
        OFFSET -0.253549 -42.0924 -1.46059
        CHANNELS 3 Zrotation Xrotation Yrotation
        JOINT LeftToes
        {
          OFFSET -0.04 -4.41509 8.4991
          CHANNELS 3 Zrotation Xrotation Yrotation
          End Site
          {
            OFFSET 0.08 -0.047448 9.77979
          }
        }
      }
    }
  }
}
MOTION
Frames:	7
Frame Time:	0.0166667
28.2131 94.491 -12.5951 8.75653 -0.641214 119.192 -15.8964 -21.3377 2.41611 9.92735 59.5439 -14.3411 5.01552 0.93075 -0.345577 0.0462048 0.000533403 0.662642 4.26879 15.2388 -14.613 -1.36338e-007 0.00517 -0.00156518 -22.5885 4.28319 62.1696 -0 -3.97569e-016 -0 -69.1707 -79.5823 -77.6976 -4.36354 51.1823 -91.9809 -5.81857 31.5266 55.6474 13.2473 3.20598 6.1242 92.8043 -0.129008 79.1469 28.8184 58.9069 73.8334 0.123448 23.5605 -1.48776 44.0604 -27.2618 -3.80254 -32.0768 33.2594 50.3801 0.636262 -2.56761 0.0490657 -6.38221e-009 1.56031e-007 -4.88727e-009 
27.578 94.1487 -13.4833 9.01373 -0.789341 119.179 -16.0466 -21.9266 2.7277 12.5107 59.3747 -16.9969 4.65872 1.02254 -0.577737 0.0462048 0.000533403 0.662642 4.50071 16.0362 -15.6033 0.0484317 -0.00926584 -0.00156518 -22.3486 3.3299 62.1797 1.59028e-015 1.39149e-015 -0 -31.7518 -74.274 -44.6776 -1.15676 43.0639 -79.4431 -1.84076 31.4995 41.3582 12.6218 2.74758 6.02693 90.1859 -2.98226 78.2169 23.8289 55.9321 79.1562 0.82223 18.2941 8.29878 42.6472 -26.7473 -3.62609 -31.7544 33.1837 47.0092 4.75363 -2.34857 -0.00619011 -6.38221e-009 1.56031e-007 -4.88727e-009 
26.8771 94.1454 -14.4174 9.29352 -0.757328 119.817 -15.9672 -21.8234 3.0856 14.3893 58.6879 -19.2024 5.01508 1.36598 -1.14201 0.0462048 0.000533403 0.662642 4.81874 16.6147 -16.332 0.17989 -0.0484489 -0.00569078 -22.0577 2.6213 61.9915 7.95139e-016 7.95139e-016 -0 -16.5118 -65.4382 -35.1281 1.09157 35.1264 -63.1043 -7.73774 26.9052 55.597 12.0252 2.49338 5.98111 88.6802 -4.34625 77.6934 21.5076 53.9779 81.899 0.801054 18.1686 5.72438 39.97 -25.5992 -2.69019 -28.8515 32.4754 41.9034 9.03107 -1.89669 -0.521605 -6.38221e-009 1.56031e-007 -4.88728e-009 
26.1382 94.4045 -15.3854 9.59791 -0.556802 120.947 -15.7415 -21.22 3.44564 15.6788 57.6399 -20.9652 5.98616 1.87114 -1.9509 0.0462048 0.000533403 0.662642 5.18091 17.01 -16.8373 0.373619 -0.106191 -0.0114429 -21.7551 2.12568 61.6406 -1.10348e-032 -3.97569e-016 -1.59028e-015 -10.6365 -56.3833 -36.4619 2.19025 28.8313 -42.8995 3.85583 26.1766 32.1024 11.4016 2.4162 5.90725 88.0066 -4.8674 77.4831 20.5033 52.8371 83.4918 1.15562 16.0706 9.93003 37.0563 -24.2205 -1.74159 -25.2335 30.7487 36.4496 13.3221 -1.1325 -1.31448 -6.38221e-009 1.56031e-007 -4.88726e-009 
25.3911 94.8445 -16.3741 9.92019 -0.22232 122.398 -15.4276 -20.2684 3.77352 16.4487 56.3469 -22.2918 7.37956 2.45269 -2.92521 0.0462048 0.000533403 0.662642 5.55947 17.2475 -17.1358 0.608862 -0.176303 -0.0179026 -21.4837 1.81347 61.1461 -1.59028e-015 1.59028e-015 -3.18055e-015 -9.21186 -49.3949 -43.0857 1.81939 24.4828 -20.3492 -11.6614 15.5149 33.1524 10.7544 2.47862 5.87151 87.9101 -4.9837 77.468 20.1623 52.2044 84.3053 1.01244 16.6486 7.21792 34.0366 -22.5522 -0.770652 -21.3247 28.0274 30.7928 17.5143 -0.00915601 -2.26267 -6.38221e-009 1.56031e-007 -4.88728e-009 
24.6639 95.3899 -17.3672 10.2386 0.201483 123.992 -15.0715 -19.1211 4.04507 16.8259 54.8988 -23.2818 9.03777 3.03466 -3.98355 0.0462048 0.000533403 0.662642 5.93449 17.3593 -17.2589 0.864865 -0.252592 -0.0242782 -21.2811 1.62663 60.533 4.41391e-032 -7.95139e-016 3.18055e-015 -7.90703 -45.506 -47.8882 0.439016 18.4232 -1.15679 2.37541 17.182 17.7509 10.1204 2.62698 5.80899 88.1602 -4.8253 77.4836 20.085 51.933 84.798 1.25466 15.9292 8.97607 29.8716 -21.124 0.093762 -15.1969 25.6532 24.4156 20.2671 1.40474 -3.1478 -6.38221e-009 1.56031e-007 -4.88728e-009 
23.9839 95.9699 -18.3574 10.5234 0.665637 125.547 -14.6991 -17.9265 4.24504 16.8906 53.4018 -24.0328 10.6771 3.56796 -5.04467 0.0462048 0.000533403 0.662642 6.26253 17.3722 -17.2105 1.12087 -0.328867 -0.029972 -21.1442 1.52788 59.8088 7.95139e-016 1.59028e-015 6.36111e-015 -7.39924 -43.6763 -51.5447 -0.552436 9.79814 4.72698 -7.48188 7.78585 6.197 9.51192 2.82374 5.80822 88.6284 -4.58017 77.4629 20.0725 51.867 85.0542 1.22823 16.6101 6.79025 25.231 -19.2853 0.853943 -8.20926 22.1903 17.954 22.2671 3.37156 -3.99948 -6.38222e-009 1.56031e-007 -4.88727e-009 
